<?xml version="1.0" standalone="no"?><!DOCTYPE svg PUBLIC "-//W3C//DTD SVG 1.1//EN" "http://www.w3.org/Graphics/SVG/1.1/DTD/svg11.dtd"><svg t="1585059842904" class="icon" viewBox="0 0 1024 1024" version="1.1" xmlns="http://www.w3.org/2000/svg" p-id="2257" xmlns:xlink="http://www.w3.org/1999/xlink" width="200" height="200"><defs><style type="text/css"></style></defs><path d="M631 285m-36.8 0a36.8 36.8 0 1 0 73.6 0 36.8 36.8 0 1 0-73.6 0Z" fill="" p-id="2258"></path><path d="M428 280m-36.8 0a36.8 36.8 0 1 0 73.6 0 36.8 36.8 0 1 0-73.6 0Z" fill="" p-id="2259"></path><path d="M843.8 553.6c0 12-0.4 23.8-1.4 35.8-0.4 5.8-1 11.8-1.6 17.6-0.4 3-0.6 5.8-1 8.6 0.8-6.2-0.8 5.4-1 6.4-3.8 23.4-9.4 46.4-16.8 69-3.4 10.6-7.4 21-11.6 31.2-3.4 8.4 2.4-5.4-1.2 3-1 2.6-2.2 5-3.4 7.4-2.6 5.8-5.4 11.4-8.4 17.2-10.2 19.8-22.2 38.8-35.4 56.8-0.4 0.6-5.8 7.6-1.6 2.4-1.6 2-3.2 4.2-5 6.2-3.2 4-6.8 8-10.2 12-7.4 8.4-15.2 16.6-23.4 24.4-7.4 7.2-15.2 14-23.2 20.4-0.6 0.6-7.4 5.8-2 1.6-2 1.6-4 3-6.2 4.6-4.8 3.6-9.6 6.8-14.6 10.2-8.4 5.6-17.2 10.8-26.2 15.6-4.4 2.4-9 4.6-13.6 6.8-2.2 1.2-4.6 2.2-6.8 3.2-1.2 0.6-11 4.8-4.4 2-19.6 8-40 14-60.6 18.2-5 1-10 1.8-15.2 2.6 7.4-1.2-1.2 0.2-2.2 0.2-2.6 0.4-5.2 0.6-7.8 0.8-11.2 1-22.6 1.4-33.8 1.2-10.4-0.2-20.8-0.8-31-2-1-0.2-9.6-1.4-2.2-0.2-2.6-0.4-5-0.8-7.6-1.2-5.8-1-11.8-2.2-17.6-3.6-10-2.2-19.6-5-29.4-8.2-4.8-1.6-9.6-3.4-14.2-5-2.4-0.8-4.8-1.8-7-2.8 6.6 2.8-3.2-1.4-4.4-2-19.2-8.6-37.6-19.4-55-31.4-4.2-3-8.2-6-12.4-9 5.4 4.2-1.4-1.2-2-1.6-2-1.6-4-3.2-6-5-8.6-7.2-16.8-14.8-24.6-22.8-7.4-7.4-14.4-15.2-21.2-23-3.4-4-6.6-8.2-10-12.2 4 5.2-1.2-1.8-1.6-2.4-2.2-2.8-4.2-5.8-6.2-8.6-13-18.4-24.2-37.8-34-58-2.4-5-4.6-10-6.8-15-3.6-8.4 2.2 5.4-1.2-3l-3-7.8c-4.4-11.2-8.2-22.8-11.8-34.4-3.2-10.8-6-21.8-8.6-33-1.2-5.6-2.4-11.2-3.4-16.8-0.6-2.8-1-5.6-1.4-8.6-0.2-1-1.8-12.4-1-6.4-3.2-24.4-4.4-49.2-3.8-74 0.2-11.8 1-23.6 2.2-35.4 0.2-3 0.6-5.8 1-8.8 0-0.4 1.4-10 0.4-3.6 1-6.6 2-13.4 3.2-20 4.2-23.2 10.6-46 18.4-68.2 1.8-5.2 3.8-10.4 5.8-15.6 1-2.6 2-5.2 3.2-7.6-2.4 6 1.2-2.4 1.4-3 4.8-10.8 10.2-21.4 15.8-31.8 5.2-9.4 10.8-18.6 16.6-27.6 2.8-4.4 6-8.8 9-13.2 1.6-2.2 3-4.4 4.6-6.4 1-1.4 2.2-2.8 3.2-4.2-2 2.6-2 2.6 0.2-0.2 13.4-17 28.4-33 44.4-47.6 3.8-3.4 7.8-6.8 11.6-10.2l6-4.8c6.6-5.4-4.8 3.6 2-1.6 8.8-6.6 18-12.8 27.4-18.6 8.6-5.4 17.6-10.2 26.6-14.8 4.6-2.2 9.2-4.4 13.8-6.4 0.8-0.4 8.6-3.6 2.2-1 3.2-1.2 6.2-2.4 9.4-3.6 19.8-7.4 40.4-12.8 61.2-16.4 1-0.2 9.6-1.4 2.2-0.4 2.6-0.4 5.2-0.6 7.6-1 5.2-0.6 10.4-1 15.4-1.2 11.4-0.6 22.6-0.6 34-0.2 5.2 0.2 10.4 0.6 15.6 1.2 2.6 0.2 5.2 0.6 7.6 0.8 8.6 1-6.4-1 2.2 0.4 11 1.6 21.8 4 32.4 6.8 9.8 2.6 19.4 5.6 29 9 2.4 0.8 4.8 1.8 7 2.6 1 0.4 8.8 3.6 2.2 0.8 5.4 2.2 10.8 4.8 16 7.4 19 9.2 37 20.6 54.2 33 0.6 0.6 7.4 5.8 2 1.6l6 4.8c4 3.2 7.8 6.6 11.8 10 8.4 7.4 16.4 15.4 24.2 23.4 7.2 7.6 14 15.6 20.6 23.8 0.4 0.6 5.8 7.4 1.8 2.2 1.6 2.2 3.2 4.2 4.8 6.4 3.6 5 7.2 10.2 10.6 15.2 11.4 17.2 21.6 35.4 30.4 54.2 2 4.2 3.8 8.4 5.6 12.4-2.6-6 1 2.4 1.2 3l3 7.8c4 10.4 7.6 21 10.8 31.8 6.4 21 11 42.4 14.2 64 0.6 3.6 0.6 3.8 0.2 0.6 0.4 2.8 0.8 5.8 1 8.6 0.6 5.8 1.2 11.6 1.6 17.6 0.8 12.8 1.2 24.8 1.2 36.6 0.2 38.6 60.2 38.6 60 0-0.4-97.2-28-194.6-83.6-274.8-52-74.8-126.8-133-215-158s-183.4-12.4-263.8 30.4c-80 42.6-142.8 115.8-179.8 197.8-80.6 178.6-48.6 404.4 93.6 543.2 65.2 63.6 151.2 102.6 242.4 106.6 91.6 4 179.8-31 249.4-89.4 103.2-86.6 156.2-223.2 156.6-356 0.4-38.4-59.6-38.4-59.8 0.2z" fill="" p-id="2260"></path><path d="M27.6 424.6c39.4 28.4 78.6 56.6 118 85 6.6 4.8 16.6 1.2 20.6-5.4 4.4-7.6 1.2-15.8-5.4-20.6-39.4-28.4-78.6-56.6-118-85-6.6-4.8-16.6-1.2-20.6 5.4-4.6 7.6-1.4 15.8 5.4 20.6zM306.4 47c19.8 44.2 39.6 88.4 59.6 132.8 6.6 15 28 18.4 41 10.8 15.2-9 17.4-26.2 10.8-41C398 105.2 378 61 358.2 16.8c-6.6-15-28-18.4-41-10.8-15.2 8.8-17.4 26-10.8 41zM684 16.8c-19.8 44.2-39.6 88.4-59.6 132.8-6.6 15-4.4 32.2 10.8 41 13 7.6 34.4 4.2 41-10.8 19.8-44.2 39.6-88.4 59.6-132.8 6.6-15 4.4-32.2-10.8-41C712-1.6 690.6 1.8 684 16.8zM67.8 847.4L175.2 740c13.6-13.6-7.6-35-21.2-21.2l-107.4 107.4c-13.6 13.6 7.6 34.8 21.2 21.2zM198.4 1003l107.4-107.4c13.6-13.6-7.6-35-21.2-21.2l-107.4 107.4c-13.8 13.8 7.4 35 21.2 21.2zM990.4 399.2c-41.4 25.2-82.8 50.6-124.2 75.8-16.4 10-1.4 36 15.2 26 41.4-25.2 82.8-50.6 124.2-75.8 16.4-10.2 1.4-36.2-15.2-26zM985.4 826.2L878 718.8c-13.6-13.6-35 7.6-21.2 21.2l107.4 107.4c13.8 13.6 35-7.6 21.2-21.2zM855 981.8l-107.4-107.4c-13.6-13.6-35 7.6-21.2 21.2l107.4 107.4c13.6 13.8 34.8-7.4 21.2-21.2zM221.4 321.2c21.4 24.4 47.2 45.6 73.2 65 53.8 40.2 116.4 71 183 82.6 55.6 9.6 112.4 4.8 165.4-14.6 70-25.6 129.2-73.8 178.4-128.6 12.8-14.4-8.2-35.6-21.2-21.2-65.8 73.4-150.6 134-252 139.2-71 3.6-140-20.6-200-57.2-38.8-23.6-75-51.4-105.6-86.2-12.8-14.8-34 6.4-21.2 21zM536.2 965.2v-264c0-19.4-30-19.4-30 0v264c0 19.4 30 19.4 30 0z" fill="" p-id="2261"></path></svg>