<?xml version="1.0" standalone="no"?><!DOCTYPE svg PUBLIC "-//W3C//DTD SVG 1.1//EN" "http://www.w3.org/Graphics/SVG/1.1/DTD/svg11.dtd"><svg t="1584807339211" class="icon" viewBox="0 0 1024 1024" version="1.1" xmlns="http://www.w3.org/2000/svg" p-id="12917" xmlns:xlink="http://www.w3.org/1999/xlink" width="200" height="200"><defs><style type="text/css"></style></defs><path d="M999.354037 0c-6.360248 0-12.720497 0-12.720497 6.360248L630.459627 362.534161l19.080745-190.807453c0-12.720497-6.360248-19.080745-19.080745-25.440994 0 0 0 0 0 0-12.720497 0-19.080745 6.360248-19.080745 19.080745L579.57764 419.776398c0 6.360248 0 12.720497 6.360248 19.080745C592.298137 445.217391 598.658385 445.217391 605.018634 445.217391l248.049689-31.801242c12.720497 0 19.080745-12.720497 19.080745-25.440994 0-12.720497-12.720497-19.080745-25.440994-19.080745l-184.447205 19.080745 356.173913-356.173913c6.360248-6.360248 6.360248-19.080745 0-31.801242C1005.714286 6.360248 999.354037 0 999.354037 0L999.354037 0zM19.875776 6.360248c6.360248 0 12.720497 0 12.720497 6.360248l356.173913 356.173913-25.440994-190.807453c0-12.720497 6.360248-19.080745 19.080745-25.440994 0 0 0 0 0 0 12.720497 0 19.080745 6.360248 19.080745 19.080745L446.012422 419.776398c0 6.360248 0 12.720497-6.360248 19.080745C433.291925 445.217391 426.931677 445.217391 420.571429 445.217391L172.521739 413.416149c-12.720497 0-19.080745-12.720497-19.080745-25.440994 0-12.720497 12.720497-19.080745 25.440994-19.080745l190.807453 19.080745L7.15528 38.161491C0.795031 31.801242 0.795031 19.080745 7.15528 6.360248 13.515528 6.360248 13.515528 6.360248 19.875776 6.360248L19.875776 6.360248zM19.875776 1017.639752c6.360248 0 12.720497 0 12.720497-6.360248l356.173913-356.173913-25.440994 184.447205c0 12.720497 6.360248 19.080745 19.080745 25.440994 0 0 0 0 0 0 12.720497 0 19.080745-6.360248 19.080745-19.080745L446.012422 597.863354c0-6.360248 0-12.720497-6.360248-19.080745C433.291925 578.782609 426.931677 572.42236 420.571429 578.782609L172.521739 604.223602c-12.720497 0-19.080745 12.720497-19.080745 25.440994 0 12.720497 12.720497 19.080745 25.440994 19.080745l190.807453-19.080745-356.173913 356.173913c-6.360248 6.360248-6.360248 19.080745 0 31.801242C13.515528 1011.279503 19.875776 1017.639752 19.875776 1017.639752L19.875776 1017.639752zM999.354037 1017.639752c-6.360248 0-12.720497 0-12.720497-6.360248l-356.173913-356.173913 19.080745 184.447205c0 12.720497-6.360248 19.080745-19.080745 25.440994 0 0 0 0 0 0-12.720497 0-19.080745-6.360248-19.080745-19.080745L579.57764 597.863354c0-6.360248 0-12.720497 6.360248-19.080745C592.298137 578.782609 598.658385 572.42236 605.018634 578.782609l248.049689 31.801242c12.720497 0 19.080745 12.720497 19.080745 25.440994 0 12.720497-12.720497 19.080745-25.440994 19.080745l-184.447205-19.080745 356.173913 356.173913c6.360248 6.360248 6.360248 19.080745 0 31.801242C1005.714286 1011.279503 1005.714286 1017.639752 999.354037 1017.639752L999.354037 1017.639752zM598.658385 438.857143" p-id="12918"></path></svg>