<?xml version="1.0" standalone="no"?><!DOCTYPE svg PUBLIC "-//W3C//DTD SVG 1.1//EN" "http://www.w3.org/Graphics/SVG/1.1/DTD/svg11.dtd"><svg t="1584807127702" class="icon" viewBox="0 0 1024 1024" version="1.1" xmlns="http://www.w3.org/2000/svg" p-id="11185" xmlns:xlink="http://www.w3.org/1999/xlink" width="200" height="200"><defs><style type="text/css"></style></defs><path d="M722.767098 340.246081l243.992255-243.224783-0.831428 137.889201a20.46593 20.46593 0 0 0 20.465929 21.169446h14.645931c11.448129-0.31978 20.977578-7.035163 21.169446-18.675161l0.63956-205.298857c0-0.127912-0.831428-0.255824-0.831428-0.447692L1023.296484 21.233402a19.186809 19.186809 0 0 0-4.860659-14.581975 19.570545 19.570545 0 0 0-14.709887-5.883955l-10.360876 0.127912a0.63956 0.63956 0 0 0-0.511649 0.191869L789.217413 0a21.872962 21.872962 0 0 0-21.169446 21.361314v14.709887c1.087253 12.279558 11.512085 21.553182 23.855599 21.169446l134.115796 0.383736-243.352695 242.393355a28.460433 28.460433 0 0 0 40.164387 40.164387v0.127912z m-421.214415 342.932234l-244.184124 242.393354 0.831429-137.121728a20.46593 20.46593 0 0 0-20.46593-21.233402H22.384611c-11.448129 0.383736-20.977578 7.035163-21.169446 18.739116L0.575604 991.318469c0 0.191868 0.831428 0.383736 0.831429 0.511648l-1.215165 10.424833a19.186809 19.186809 0 0 0 4.860658 14.645931 19.826369 19.826369 0 0 0 14.645931 5.883954l10.424833-0.191868a0.63956 0.63956 0 0 0 0.511648-0.127912L234.974455 1023.296484a21.936918 21.936918 0 0 0 21.169446-21.361314v-14.645931a23.216039 23.216039 0 0 0-23.855599-21.10549L98.172506 965.736056l243.160827-242.393354a28.460433 28.460433 0 0 0-19.826369-48.606583 27.692961 27.692961 0 0 0-19.954281 8.37824z m721.424021 308.140154l-0.575605-205.362814c-0.31978-11.512085-9.721317-18.355381-21.10549-18.739116h-14.709887c-11.384173-0.31978-20.46593 9.785273-20.274061 21.233402l0.831428 137.825245-244.184123-243.032915a28.396477 28.396477 0 0 0-40.164387 40.164387l243.288739 242.393354-134.115796 0.319781a23.407907 23.407907 0 0 0-23.855599 21.169446v14.645931c0.383736 11.512085 9.593405 20.849666 21.10549 21.361314l203.380176-0.831429 0.511648 0.127912 10.360877 0.191868a18.547249 18.547249 0 0 0 19.50659-20.465929l-1.151209-10.424833c0.191868-0.191868 1.023296-0.31978 1.023296-0.511648h0.063956zM98.300418 57.560427L232.48017 57.304603a23.471863 23.471863 0 0 0 23.855599-21.10549v-14.709887A22.128786 22.128786 0 0 0 235.166323 0l-204.659297 0.831428C30.315158 0.831428 30.187246 0.63956 30.059334 0.63956L19.570545 0.511648a18.547249 18.547249 0 0 0-19.442633 20.46593L1.279121 31.402411C1.279121 31.594279 0.447692 31.722191 0.447692 31.978015L0.95934 237.276872c0.127912 11.448129 9.721317 18.291425 21.169446 18.675161h15.349448c11.448129 0.31978 20.46593-9.785273 20.465929-21.233402l-0.63956-137.121729L301.360814 340.246081a28.396477 28.396477 0 1 0 40.164387-40.164387L98.364374 57.560427z" fill="#666666" p-id="11186"></path></svg>